<mxfile host="65bd71144e">
    <diagram id="dYFcan0PzUvOhpel1Lth" name="Page-1">
        <mxGraphModel dx="1053" dy="698" grid="1" gridSize="10" guides="1" tooltips="1" connect="1" arrows="1" fold="1" page="1" pageScale="1" pageWidth="1100" pageHeight="850" math="0" shadow="0">
            <root>
                <mxCell id="0"/>
                <mxCell id="1" parent="0"/>
                <mxCell id="20" value="" style="rounded=1;whiteSpace=wrap;html=1;strokeColor=#6c8ebf;fillColor=#dae8fc;" vertex="1" parent="1">
                    <mxGeometry x="292.54" y="30" width="510" height="730" as="geometry"/>
                </mxCell>
                <mxCell id="46" value="" style="rounded=1;whiteSpace=wrap;html=1;strokeColor=#6666FF;" vertex="1" parent="1">
                    <mxGeometry x="452.53999999999996" y="530" width="220" height="170" as="geometry"/>
                </mxCell>
                <mxCell id="17" value="" style="rounded=1;whiteSpace=wrap;html=1;strokeColor=#6666FF;" vertex="1" parent="1">
                    <mxGeometry x="50" y="359" width="190" height="150" as="geometry"/>
                </mxCell>
                <mxCell id="15" value="App Service" style="image;aspect=fixed;html=1;points=[];align=center;fontSize=12;image=img/lib/azure2/app_services/App_Service_Environments.svg;" vertex="1" parent="1">
                    <mxGeometry x="131" y="369.02" width="28" height="28" as="geometry"/>
                </mxCell>
                <mxCell id="16" value="Web App" style="image;aspect=fixed;html=1;points=[];align=center;fontSize=12;image=img/lib/azure2/app_services/App_Services.svg;" vertex="1" parent="1">
                    <mxGeometry x="72.54000000000002" y="432.01" width="38" height="38" as="geometry"/>
                </mxCell>
                <mxCell id="35" style="edgeStyle=none;html=1;strokeColor=#6666FF;" edge="1" parent="1" source="29" target="26">
                    <mxGeometry relative="1" as="geometry"/>
                </mxCell>
                <mxCell id="18" value="Internet&lt;div&gt;&lt;br&gt;&lt;/div&gt;" style="image;aspect=fixed;perimeter=ellipsePerimeter;html=1;align=center;shadow=0;dashed=0;spacingTop=3;image=img/lib/active_directory/internet_cloud.svg;" vertex="1" parent="1">
                    <mxGeometry x="145.27000000000004" y="609" width="82.54" height="52" as="geometry"/>
                </mxCell>
                <mxCell id="21" value="&lt;span style=&quot;background-color: rgb(204, 204, 255);&quot;&gt;demo_vnet&lt;/span&gt;" style="image;aspect=fixed;html=1;points=[];align=center;fontSize=12;image=img/lib/azure2/networking/Virtual_Networks.svg;" vertex="1" parent="1">
                    <mxGeometry x="320" y="50" width="57.46" height="34.31" as="geometry"/>
                </mxCell>
                <mxCell id="22" value="" style="rounded=1;whiteSpace=wrap;html=1;strokeColor=#6666FF;" vertex="1" parent="1">
                    <mxGeometry x="332.54" y="270" width="190" height="152" as="geometry"/>
                </mxCell>
                <mxCell id="23" value="webapp_subnet" style="image;aspect=fixed;html=1;points=[];align=center;fontSize=12;image=img/lib/azure2/networking/Subnet.svg;" vertex="1" parent="1">
                    <mxGeometry x="452.53999999999996" y="371.12" width="28" height="16.77" as="geometry"/>
                </mxCell>
                <mxCell id="28" value="" style="edgeStyle=none;html=1;strokeColor=#6666FF;" edge="1" parent="1" source="26" target="16">
                    <mxGeometry relative="1" as="geometry"/>
                </mxCell>
                <mxCell id="26" value="Web App Front End&lt;div&gt;with Private Link&lt;/div&gt;" style="image;aspect=fixed;html=1;points=[];align=center;fontSize=12;image=img/lib/azure2/devops/API_Connections.svg;" vertex="1" parent="1">
                    <mxGeometry x="158.54000000000002" y="438.02" width="48" height="31.99" as="geometry"/>
                </mxCell>
                <mxCell id="31" value="" style="rounded=1;whiteSpace=wrap;html=1;strokeColor=#6666FF;" vertex="1" parent="1">
                    <mxGeometry x="584.54" y="271.99999999999994" width="190" height="150" as="geometry"/>
                </mxCell>
                <mxCell id="33" style="edgeStyle=none;html=1;strokeColor=#6666FF;" edge="1" parent="1" target="26">
                    <mxGeometry relative="1" as="geometry">
                        <mxPoint x="349.53999999999996" y="345.0999726775956" as="sourcePoint"/>
                    </mxGeometry>
                </mxCell>
                <mxCell id="37" value="" style="edgeStyle=none;html=1;strokeColor=#6666FF;" edge="1" parent="1" source="18" target="29">
                    <mxGeometry relative="1" as="geometry">
                        <mxPoint x="186.54000000000002" y="609" as="sourcePoint"/>
                        <mxPoint x="186.54000000000002" y="467" as="targetPoint"/>
                    </mxGeometry>
                </mxCell>
                <mxCell id="29" value="" style="verticalLabelPosition=bottom;verticalAlign=top;html=1;shape=mxgraph.basic.no_symbol" vertex="1" parent="1">
                    <mxGeometry x="166.54000000000002" y="539" width="40" height="40" as="geometry"/>
                </mxCell>
                <mxCell id="38" value="NSG to deny&amp;nbsp;&lt;div&gt;outbound access&lt;/div&gt;" style="image;aspect=fixed;html=1;points=[];align=center;fontSize=12;image=img/lib/azure2/networking/Network_Security_Groups.svg;" vertex="1" parent="1">
                    <mxGeometry x="496.53999999999996" y="260" width="26" height="31.57" as="geometry"/>
                </mxCell>
                <mxCell id="39" value="Private&amp;nbsp;&lt;div&gt;End-point&lt;/div&gt;" style="image;aspect=fixed;html=1;points=[];align=center;fontSize=12;image=img/lib/azure2/networking/Private_Endpoint.svg;" vertex="1" parent="1">
                    <mxGeometry x="596.54" y="320.00000000000006" width="32" height="29.33" as="geometry"/>
                </mxCell>
                <mxCell id="41" value="db_subnet" style="image;aspect=fixed;html=1;points=[];align=center;fontSize=12;image=img/lib/azure2/networking/Subnet.svg;" vertex="1" parent="1">
                    <mxGeometry x="722.54" y="374.63" width="28" height="16.77" as="geometry"/>
                </mxCell>
                <mxCell id="43" value="Key Vault" style="image;aspect=fixed;html=1;points=[];align=center;fontSize=12;image=img/lib/azure2/security/Key_Vaults.svg;" vertex="1" parent="1">
                    <mxGeometry x="468.53999999999996" y="605" width="34" height="34" as="geometry"/>
                </mxCell>
                <mxCell id="44" value="keyvault_subnet" style="image;aspect=fixed;html=1;points=[];align=center;fontSize=12;image=img/lib/azure2/networking/Subnet.svg;" vertex="1" parent="1">
                    <mxGeometry x="600.54" y="651" width="28" height="16.77" as="geometry"/>
                </mxCell>
                <mxCell id="54" style="edgeStyle=orthogonalEdgeStyle;html=1;strokeColor=#6666FF;curved=1;" edge="1" parent="1" source="45">
                    <mxGeometry relative="1" as="geometry">
                        <mxPoint x="365.5" y="349.3299999999999" as="targetPoint"/>
                        <Array as="points">
                            <mxPoint x="568.54" y="480"/>
                            <mxPoint x="365.53999999999996" y="480"/>
                        </Array>
                    </mxGeometry>
                </mxCell>
                <mxCell id="59" value="RBAC" style="edgeLabel;html=1;align=center;verticalAlign=middle;resizable=0;points=[];" vertex="1" connectable="0" parent="54">
                    <mxGeometry x="-0.1635" y="-17" relative="1" as="geometry">
                        <mxPoint x="-1" y="17" as="offset"/>
                    </mxGeometry>
                </mxCell>
                <mxCell id="56" style="edgeStyle=orthogonalEdgeStyle;html=1;strokeColor=#6666FF;curved=1;" edge="1" parent="1" source="45">
                    <mxGeometry relative="1" as="geometry">
                        <mxPoint x="622.54" y="335" as="targetPoint"/>
                        <Array as="points">
                            <mxPoint x="568.54" y="524"/>
                            <mxPoint x="682.54" y="524"/>
                            <mxPoint x="682.54" y="340"/>
                            <mxPoint x="622.54" y="340"/>
                        </Array>
                    </mxGeometry>
                </mxCell>
                <mxCell id="58" value="RBAC" style="edgeLabel;html=1;align=center;verticalAlign=middle;resizable=0;points=[];" vertex="1" connectable="0" parent="56">
                    <mxGeometry x="-0.1309" y="-2" relative="1" as="geometry">
                        <mxPoint x="-12" as="offset"/>
                    </mxGeometry>
                </mxCell>
                <mxCell id="45" value="Private&amp;nbsp;&lt;div&gt;End-point&lt;/div&gt;" style="image;aspect=fixed;html=1;points=[];align=center;fontSize=12;image=img/lib/azure2/networking/Private_Endpoint.svg;" vertex="1" parent="1">
                    <mxGeometry x="552.54" y="539" width="32" height="29.33" as="geometry"/>
                </mxCell>
                <mxCell id="60" value="" style="rounded=1;whiteSpace=wrap;html=1;strokeColor=#6666FF;" vertex="1" parent="1">
                    <mxGeometry x="572.54" y="60" width="202" height="170" as="geometry"/>
                </mxCell>
                <mxCell id="62" style="edgeStyle=orthogonalEdgeStyle;html=1;curved=1;strokeColor=#6666FF;" edge="1" parent="1" source="61">
                    <mxGeometry relative="1" as="geometry">
                        <mxPoint x="365.5" y="320" as="targetPoint"/>
                    </mxGeometry>
                </mxCell>
                <mxCell id="63" value="RBAC" style="edgeLabel;html=1;align=center;verticalAlign=middle;resizable=0;points=[];" vertex="1" connectable="0" parent="62">
                    <mxGeometry x="0.1069" y="40" relative="1" as="geometry">
                        <mxPoint x="22" y="5" as="offset"/>
                    </mxGeometry>
                </mxCell>
                <mxCell id="61" value="Storage&lt;div&gt;Account&lt;/div&gt;" style="image;aspect=fixed;html=1;points=[];align=center;fontSize=12;image=img/lib/azure2/storage/Storage_Accounts.svg;" vertex="1" parent="1">
                    <mxGeometry x="595.79" y="160" width="37.5" height="30" as="geometry"/>
                </mxCell>
                <mxCell id="64" value="Private DNS" style="image;sketch=0;aspect=fixed;html=1;points=[];align=center;fontSize=12;image=img/lib/mscae/DNS_Private_Zones.svg;" vertex="1" parent="1">
                    <mxGeometry x="592.54" y="72.09" width="50" height="50" as="geometry"/>
                </mxCell>
                <mxCell id="65" value="storage_subnet" style="image;aspect=fixed;html=1;points=[];align=center;fontSize=12;image=img/lib/azure2/networking/Subnet.svg;" vertex="1" parent="1">
                    <mxGeometry x="713.04" y="180" width="28" height="16.77" as="geometry"/>
                </mxCell>
            </root>
        </mxGraphModel>
    </diagram>
</mxfile>